<?xml version="1.0" encoding="utf-8"?>
<!-- Uploaded to: SVG Repo, www.svgrepo.com, Generator: SVG Repo Mixer Tools -->
<svg width="800px" height="800px" viewBox="0 0 1024 1024" fill="#000000" class="icon"  version="1.1" xmlns="http://www.w3.org/2000/svg"><path d="M392.064 735.902c-96.12 0-186.484-37.454-254.454-105.422-140.302-140.302-140.302-368.588 0-508.892C205.58 53.62 295.946 16.192 392.056 16.192c96.12 0 186.46 37.428 254.414 105.398 67.984 67.96 105.422 158.326 105.422 254.446 0.016 96.12-37.422 186.476-105.39 254.446s-158.326 105.42-254.438 105.42z m-0.008-703.718c-91.84 0-178.192 35.764-243.138 100.712-134.064 134.064-134.064 352.212 0 486.278 64.948 64.94 151.298 100.734 243.146 100.734 91.84 0 178.192-35.794 243.13-100.734s100.72-151.292 100.706-243.138c0-91.848-35.782-178.192-100.736-243.138-64.924-64.948-151.266-100.714-243.108-100.714z" fill="" /><path d="M392.048 703.884c-87.584 0-169.914-34.11-231.824-96.018-61.91-61.91-96.01-144.232-96.01-231.816 0-87.578 34.102-169.906 96.01-231.816C222.14 82.31 304.472 48.2 392.062 48.2c87.57 0 169.898 34.094 231.792 96.002 127.786 127.824 127.8 335.824 0.032 463.664-61.924 61.91-144.252 96.018-231.838 96.018z m0.016-639.69c-83.32 0-161.636 32.446-220.532 91.348-58.888 58.888-91.326 137.204-91.326 220.508 0 83.312 32.438 161.628 91.326 220.508 58.894 58.878 137.204 91.334 220.516 91.334 83.314 0 161.636-32.456 220.532-91.334 121.54-121.6 121.524-319.456-0.032-441.048-58.878-58.886-137.186-91.316-220.484-91.316z" fill="" /><path d="M136.174 384.062a7.99 7.99 0 0 1-7.996-7.996c0-145.504 118.368-263.878 263.856-263.878 4.42 0 7.996 3.576 7.996 7.996s-3.576 7.996-7.996 7.996c-136.672 0-247.864 111.2-247.864 247.886a7.99 7.99 0 0 1-7.996 7.996zM702.416 750.926a7.968 7.968 0 0 1-5.654-2.344l-72.874-72.872a7.994 7.994 0 0 1 0-11.308 7.992 7.992 0 0 1 11.306 0l72.874 72.874a7.992 7.992 0 0 1 0 11.306 7.97 7.97 0 0 1-5.652 2.344zM758.952 694.42a7.966 7.966 0 0 1-5.652-2.342l-72.876-72.904a7.992 7.992 0 0 1 0-11.306 7.994 7.994 0 0 1 11.308 0l72.874 72.902a7.994 7.994 0 0 1-5.654 13.65z" fill="" /><path d="M691.108 762.266a7.994 7.994 0 0 1-5.652-13.652l79.15-79.15a7.992 7.992 0 0 1 11.306 0 7.992 7.992 0 0 1 0 11.306l-79.15 79.152a7.972 7.972 0 0 1-5.654 2.344z" fill="" /><path d="M998.342 911.196a7.96 7.96 0 0 1-5.652-2.342L764.606 680.77c-3.124-3.124-3.124-8.184 0-11.306s8.184-3.124 11.306 0l228.084 228.084a7.992 7.992 0 0 1-5.654 13.648zM920.252 991.378a7.968 7.968 0 0 1-5.652-2.344L685.456 759.922a7.994 7.994 0 0 1 0-11.308 7.992 7.992 0 0 1 11.306 0l229.144 229.116a7.992 7.992 0 0 1-5.654 13.648z" fill="" /><path d="M959.86 1007.808c-17.102 0-33.172-6.652-45.26-18.774a7.992 7.992 0 0 1 0-11.306 7.992 7.992 0 0 1 11.306 0c9.074 9.09 21.13 14.088 33.954 14.088h0.032c12.806 0 24.816-4.998 33.844-14.056 9.09-9.058 14.088-21.116 14.088-33.922s-4.998-24.864-14.072-33.954a7.992 7.992 0 0 1 0-11.306 7.992 7.992 0 0 1 11.306 0c12.106 12.118 18.758 28.174 18.758 45.26s-6.652 33.14-18.758 45.228c-12.042 12.09-28.08 18.742-45.166 18.742h-0.032z" fill="" /><path d="M976.79 934.842a7.98 7.98 0 0 1-5.654-2.342L764.606 725.968a7.994 7.994 0 0 1 0-11.308 7.992 7.992 0 0 1 11.306 0l206.532 206.532a7.994 7.994 0 0 1-5.654 13.65zM761.53 227.744c-7.044 0-14.166-1.196-20.93-3.608-16.258-5.826-29.064-18.288-36.076-35.092a8.008 8.008 0 0 1 4.31-10.458c4.044-1.678 8.762 0.226 10.464 4.302 6.73 16.15 18.224 23.154 26.69 26.192 11.76 4.194 24.91 3.466 35.204-2a28.768 28.768 0 0 0 14.088-17.118 28.744 28.744 0 0 0-2.156-22.036 21.276 21.276 0 0 0-12.666-10.48 21.44 21.44 0 0 0-16.476 1.578 15.57 15.57 0 0 0-7.622 9.246 15.52 15.52 0 0 0 1.154 11.91 10.9 10.9 0 0 0 6.498 5.334 10.83 10.83 0 0 0 8.278-0.804c3.874-2.062 8.746-0.624 10.822 3.28a7.99 7.99 0 0 1-3.264 10.824 26.792 26.792 0 0 1-20.49 2.006 26.796 26.796 0 0 1-15.96-13.126 31.426 31.426 0 0 1-2.328-24.09 31.372 31.372 0 0 1 15.416-18.696c8.872-4.74 19.038-5.7 28.658-2.748a37.214 37.214 0 0 1 22.116 18.264c5.638 10.566 6.824 22.724 3.326 34.204-3.498 11.488-11.276 20.928-21.896 26.574-8.17 4.34-17.604 6.542-27.16 6.542zM184.528 790.596a37.06 37.06 0 0 1-17.828-4.53c-10.558-5.716-18.25-15.182-21.662-26.708-3.412-11.494-2.132-23.676 3.6-34.234 7.668-14.086 22.044-24.926 38.466-28.956 16.782-4.124 34.344-0.812 49.47 9.34 3.67 2.436 4.646 7.402 2.186 11.088a7.994 7.994 0 0 1-11.088 2.188c-14.548-9.746-28.02-9.246-36.758-7.092-12.12 2.966-22.668 10.84-28.22 21.084a28.74 28.74 0 0 0-2.32 22.052 28.7 28.7 0 0 0 13.938 17.18c10.442 5.686 23.56 1.782 29.236-8.652a15.574 15.574 0 0 0 1.258-11.9 15.59 15.59 0 0 0-7.542-9.308 10.77 10.77 0 0 0-8.324-0.876 10.822 10.822 0 0 0-6.482 5.248 7.98 7.98 0 0 1-10.838 3.216 7.988 7.988 0 0 1-3.234-10.838c3.42-6.31 9.106-10.9 16.008-12.962a26.8 26.8 0 0 1 20.506 2.156 31.426 31.426 0 0 1 15.244 18.834 31.396 31.396 0 0 1-2.554 24.082c-6.802 12.496-19.732 19.588-33.062 19.588zM72.14 146.624a74.7 74.7 0 0 1-8.536-0.484c-21.208-2.414-40.934-13.634-52.756-30.026C2.062 103.98-1.468 89.142 0.908 74.336c2.374-14.814 10.37-27.808 22.52-36.6 10.082-7.278 22.364-10.198 34.672-8.208 12.268 1.984 23.028 8.622 30.298 18.696 12.48 17.328 8.558 41.614-8.738 54.146-14.578 10.558-35.046 7.254-45.596-7.308a7.996 7.996 0 0 1 1.78-11.168 7.98 7.98 0 0 1 11.166 1.782c5.388 7.45 15.844 9.106 23.278 3.74 10.16-7.364 12.472-21.654 5.13-31.836a30.31 30.31 0 0 0-19.874-12.268 30.316 30.316 0 0 0-22.748 5.388c-8.684 6.28-14.398 15.58-16.102 26.168a39.878 39.878 0 0 0 7.114 29.884c9.238 12.806 24.794 21.584 41.598 23.498 12.112 1.39 30.392-0.258 48.258-15.892a7.984 7.984 0 0 1 11.284 0.742 7.998 7.998 0 0 1-0.742 11.284c-15.082 13.212-33.308 20.24-52.066 20.24zM906.962 688.922h-0.016c-7.202 0-14.494-0.904-21.648-2.686-19.022-4.748-35.498-15.242-46.368-29.58-11.262-14.836-15.212-32.016-11.152-48.352 7.292-29.208 57.364-117.212 98.892-117.212 2.388 0 4.748 0.282 6.996 0.844 44.356 11.096 45.682 125.55 39.014 152.446-6.65 26.644-33.06 44.54-65.718 44.54z m19.71-181.838c-28.736 0-76.434 77.262-83.37 105.092-2.874 11.528 0.094 23.896 8.372 34.828 8.668 11.434 21.99 19.836 37.484 23.708a73.886 73.886 0 0 0 17.79 2.216c25.208 0 45.384-13.026 50.21-32.422 7.386-29.736-0.046-126.222-27.348-133.056a13.2 13.2 0 0 0-3.138-0.366z" fill="" /><path d="M887.814 751.864a7.986 7.986 0 0 1-7.902-6.902c-7.918-57.788 20.6-157.68 21.818-161.926 1.216-4.218 5.592-6.748 9.9-5.466a7.988 7.988 0 0 1 5.466 9.9c-0.296 1-28.798 100.892-21.35 155.336a7.968 7.968 0 0 1-6.84 8.996c-0.358 0.03-0.732 0.062-1.092 0.062zM855.846 959.956a7.72 7.72 0 0 1-3.75-0.938c-78.962-41.886-119.148-12.588-120.802-11.338a8.012 8.012 0 0 1-11.2-1.468c-2.686-3.466-2.076-8.464 1.376-11.15 1.982-1.562 49.352-37.326 138.124 9.838a7.98 7.98 0 0 1 3.312 10.808 7.968 7.968 0 0 1-7.06 4.248z" fill="" /><path d="M751.596 994.752c-28.05 0-109.122-7.06-113.542-38.452-2.186-15.242 13.604-31.486 46.918-48.198 26.036-13.088 54.1-22.146 67.282-24.02 30.734-4.31 58.504 17.368 62.69 47.134 2.076 14.648-1.654 29.236-10.542 41.042-8.886 11.872-21.866 19.524-36.546 21.616-4.188 0.596-9.67 0.878-16.26 0.878z m8.528-95.238c-1.86 0-3.716 0.124-5.608 0.406-11.838 1.688-39.044 10.776-62.376 22.49-31.502 15.804-38.874 27.332-38.248 31.64 1.686 12.028 51.912 24.708 97.706 24.708 5.762 0 10.606-0.25 14.008-0.718 10.45-1.5 19.68-6.936 26.004-15.37 6.326-8.402 8.98-18.802 7.498-29.236-2.72-19.332-19.494-33.92-38.984-33.92z" fill="" /></svg>